<svg xmlns="http://www.w3.org/2000/svg" viewBox="0 0 828 237.532">
  <defs/>
  <path d="M459.8 143.946c8.7 1.4 16.5 2.1 23.3 2.1 9.7 0 17.4-1.4 23.5-4.2.2-.1.4-.2.6-.4 10.7-6.9 16.2-16.4 14.6-25.6-1.2-7.1-6.5-13-14.8-16.7 4.4-6.8 5.4-14 2.7-20.6-3.4-8.5-12.6-14-23.3-14-4 0-8 .7-12 2.2-5.5 1-14.6 5.2-32.3 23.8 9.8-19 14-34 12.6-45.3 0-.2-.1-.5-.1-.7-3.5-13.6-12.2-22-22.5-22-6.3 0-12.5 3.2-17.8 9.1-4.8-5.8-10.8-9.1-17.4-9.1-5.7 0-11.2 2.5-15.5 7-5.5 5.7-8.3 13.9-8 23-.8 5.6.4 15.5 12.6 38-15-15.2-28-23.7-39.1-25.9-.2 0-.5-.1-.7-.1-.9-.1-1.9-.1-2.8-.1-11.6 0-20.7 4.7-24.3 12.6-1.8 4-3.6 11.6 2.3 21.7-10.2 3.9-14.5 11.7-14.9 18.6-.8 11.8 8.3 22.8 22.1 26.8 3.6 1.7 8.5 2.6 15 2.6 6.6 0 14.9-.9 25-2.7-19.1 9.6-31.2 19.2-36.7 29.1-.1.2-.2.4-.3.7-4 10.2-3.7 19.8.8 26.5 3.7 5.4 9.8 8.4 17.3 8.4 2.2 0 4.5-.3 6.8-.8.4 6.8 2.8 11.4 5.2 14.3 3.9 4.6 9.5 7.2 15.9 7.2 9.2 0 18.2-5.3 24.3-14.2 3.9-4.1 8.9-12.9 12.3-38.9 3.3 21.5 8.8 36.3 16.6 44.7l.5.5c6.5 5.3 13.3 8.1 19.8 8.1 5.6 0 10.5-2.1 14.1-6 2.6-2.8 5.5-7.6 6.3-15.4 2.4.6 4.7.9 7 .9 8.3 0 15.3-4.3 18.8-11.6 4.4-9.2 2.5-20.8-5-30.4-2.7-4.9-9.5-12.2-32.5-23.2zm16.1-71.9c3.7-1.4 7.3-2 10.6-2 17 0 27.3 16.3 11.2 31.8 23.6 5.7 24.3 23.6 6.6 35-5.5 2.6-12.7 3.7-21.2 3.7-13.4 0-30.3-2.9-49.7-8-2.4-1-5-1.9-7.6-2.9-.1 0-.2 0-.2-.1l-.3-1.9 13.6-4.3c1.3-1.7 1.1-3-1.4-3.7l-12.9 4.8-1.6-2.1c.2-.2.4-.4.6-.7 1.5-2.2 2.9-4.4 4.3-6.5 22.6-27.5 38.5-41.7 48-43.1zm-97-19.2c-.7-14.8 8.3-24.8 18.1-24.8 6.1 0 12.6 4 17.1 13.3 5.6-9.2 12.2-13.3 18.1-13.3 7.5 0 14.2 6.6 17.2 17.9 1.9 15.5-8.3 38.6-26 66.1-1.7 2-3.4 4.1-5.2 6.3-.1.1-.1.1-.1.2l-1.9-.3.1-14.3c-.6-.9-1.3-1.4-1.9-1.4-.7 0-1.3.5-2 1.6l.5 13.8-2.5.9c-.1-.3-.3-.5-.5-.8-1.6-2.1-3.3-4.1-4.9-6.1-19.1-30.1-27.7-49.7-26.1-59.1zm-35.4 88.5c-5.8 0-10.1-.7-13-2.2-23.2-6.4-26.5-33.3-.1-37-15.1-17.8-6.4-32.2 12.9-32.2.8 0 1.6 0 2.4.1 15.3 3 34.1 19.9 54.7 45.2 1.4 2.2 2.9 4.5 4.4 6.9 0 .1.1.1.2.2l-.9 1.7-13.6-4.5c-2.1.6-2.7 1.8-1 3.8l13.2 3.8.1 2.7c-.3.1-.6.1-.9.2-2.5.9-4.9 1.8-7.3 2.8-22.7 5.6-39.7 8.5-51.1 8.5zm54.1 70.4c-5.5 8.3-13.2 12.2-20.1 12.2-9.8 0-17.9-8.2-15.1-23.6-4.8 2-9.1 2.9-12.8 2.9-13.5 0-19-12-13-27.4 7.6-13.6 29.4-26.2 59.9-38 2.6-.7 5.2-1.4 8-2.1.1 0 .2-.1.2-.1l1.3 1.3-8.5 11.5c0 1.6.5 2.5 1.7 2.5.4 0 1-.1 1.6-.4l7.7-11.4 2.6.8c0 .3-.1.6 0 .9.1 2.4.2 4.8.4 7.1-2.4 36-7.1 57.1-13.9 63.8zm17-76.3c-.4-.2-.8-.4-1.2-.5l-2.6-.8c-.2-.4-.5-.7-.8-1.1l-1.5-1.5c.1-.4.2-.9.1-1.3l-.1-2.7c.3-.3.5-.7.7-1.1l1-2c.4 0 .9-.1 1.3-.3l2.6-.9c.4.2.8.3 1.3.4l2.2.3c.2.4.4.8.7 1.1l1.7 2.2v1.3l.3 2.1c-.3.3-.6.6-.9 1l-1.5 2.3c-.4.1-.9.3-1.3.5zm63.9 68.3c-3.7 0-7.8-1.1-12.4-3.5 1.3 15.9-5.5 24-14.9 24-5 0-10.7-2.3-16.3-6.9-10.7-11.5-16.1-36.4-18-69.3.2-2.4.3-4.9.4-7.5v-.2l1.7-.9 8.3 11.6c.5.2 1 .3 1.4.3 1.2 0 1.8-.8 1.7-2.7l-8.5-10.8 1.5-2.2c.3.1.6.2.8.3 2.6.7 5 1.4 7.5 2 33.2 13.1 51.6 23.8 55.9 32.4 12.2 15 6 33.4-9.1 33.4zm59.6-85.1c-6.2-1.1-12.3 4.2-12.3 10.4-.4 7.2 7.7 13.5 14.5 10.7 5.4-1.7 8.5-7.8 7-13.2-1-4.1-4.8-7.6-9.2-7.9zm-2.4 16.5c-2.7-.6-4.8-3.2-4.7-5.9.3-2.8 2.7-5.2 5.4-5.7 2.6 0 5.1 1.7 5.9 4.2 1.7 3.7-2.6 8.4-6.6 7.4zm-233.6-5.9c0-6.2-6.1-11.5-12.3-10.4-4.4.2-8.2 3.7-9.3 7.9-1.5 5.4 1.6 11.5 7 13.2 6.9 2.8 15.1-3.5 14.6-10.7zm-16.4-1.4c.8-2.5 3.4-4.2 5.9-4.2 2.7.5 5.1 2.9 5.4 5.7.1 2.7-2 5.3-4.7 5.9-4 1-8.3-3.6-6.6-7.4z"/>
  <path d="M410.7 21.245c6.8 2.8 15-3.4 14.5-10.7 0-6.2-6.1-11.5-12.3-10.4-4.4.2-8.2 3.7-9.3 7.9-1.4 5.5 1.6 11.6 7.1 13.2zm-2-12c.8-2.5 3.4-4.2 5.9-4.2 2.7.5 5.1 2.9 5.4 5.7.1 2.7-2 5.3-4.7 5.9-3.9 1-8.2-3.6-6.6-7.4zm4.2 206.5c-4.4.2-8.2 3.7-9.3 7.9-1.5 5.4 1.6 11.5 7 13.2 6.8 2.8 15-3.4 14.5-10.7.1-6.2-6-11.5-12.2-10.4zm2.4 16.4c-4 1-8.3-3.7-6.6-7.5.8-2.5 3.4-4.2 5.9-4.2 2.7.5 5.1 2.9 5.4 5.7.1 2.8-2 5.4-4.7 6zm122.6-62.7c-8.7-12.1-23.3-18.4-37.7-20.3-7.8-.9-15.8-1.4-23.5.4 17.1 7.2 28.4 22.5 43.1 33.2 4.5 3.2 9.9 5.4 15.5 5.6 3.6.2 7.8-2 8-5.9.1-4.8-2.8-9.1-5.4-13zm-14.7 8.9c-13.2-9.2-24.5-21.4-39.6-27.7 10.9.7 21.9 2.9 31.9 7.5 9.9 5 19.3 13.1 22.1 24.2-5.1.6-10.2-1.2-14.4-4zm-170.5-28.9c-7.8-1.3-15.7-.2-23.4 1.2-14.3 2.8-28.4 10.1-36.3 22.7-2.4 4-5 8.5-4.5 13.4.5 3.9 4.8 5.8 8.4 5.4 5.5-.6 10.7-3.2 15-6.6 13.9-11.7 24.3-27.7 40.8-36.1zm-44.5 31.8c-4 3.1-8.9 5.3-14.1 4.9 2.1-11.3 10.9-20 20.5-25.6 9.6-5.3 20.4-8.2 31.3-9.7-14.6 7.4-25.1 20.4-37.7 30.4zm14.4-136.6c15.8 8.9 34.4 12.9 48.1 25.5-1.5-7.8-5.3-14.8-9.3-21.5-7.6-12.4-19.5-23-34-25.9-4.6-.8-9.7-1.7-14.1.5-3.5 1.8-3.7 6.6-2.1 9.7 2.4 4.9 6.6 8.9 11.4 11.7zm24.2-6.3c8.4 7.1 14.9 16.2 20.1 25.9-12-11.1-27.8-16.3-41.6-24.6-4.3-2.7-8.1-6.5-9.6-11.4 11.2-2 22.5 3.1 31.1 10.1zm168.1-5.5c1.6-3.2 1.4-7.9-2.1-9.7-4.4-2.2-9.5-1.3-14.1-.5-14.6 2.9-26.4 13.6-34 25.9-4 6.7-7.8 13.8-9.3 21.5 13.7-12.5 32.2-16.6 48.1-25.5 4.6-2.8 8.9-6.7 11.4-11.7zm-55.9 31.3c5.2-9.7 11.7-18.7 20.1-25.9 8.6-7 19.9-12.1 31.2-10.1-1.5 4.9-5.3 8.7-9.6 11.4-13.8 8.3-29.6 13.5-41.7 24.6zm-185.1 73.5H2.9c-1.6 0-2.9 1.3-2.9 2.9 0 1.6 1.3 2.9 2.9 2.9h271c1.6 0 2.9-1.3 2.9-2.9 0-1.6-1.4-2.9-2.9-2.9zm551.2 0h-271c-1.6 0-2.9 1.3-2.9 2.9 0 1.6 1.3 2.9 2.9 2.9h271c1.6 0 2.9-1.3 2.9-2.9 0-1.6-1.3-2.9-2.9-2.9z"/>
</svg>